# xmcd CD database file
#
# Track frame offsets:
#	150
#	41673
#	68113
#	125538
#	154758
#	171498
#	212418
#	231898
#	269788
#
# Disc length: 4123 seconds
#
# Revision: 0
# Processed by: cddbd v1.5.2PL0 Copyright (c) Steve Scherf et al.
# Submitted via: CDex 1.70beta2
#
DISCID=84101909
DTITLE=Tony Malaby - Cosas
DYEAR=1994
DGENRE=Jazz
TTITLE0=Cosas
TTITLE1=Mesopotamian Love God
TTITLE2=Hamza
TTITLE3=Terrible Twos
TTITLE4=Matriarchal Conspirator
TTITLE5=Shimmering Shibboleths
TTITLE6=Koan
TTITLE7=Billy Tune
TTITLE8=He Lacked The Imagination To Suffer
EXTD=YEAR: 1994
EXTT0=
EXTT1=
EXTT2=
EXTT3=
EXTT4=
EXTT5=
EXTT6=
EXTT7=
EXTT8=
PLAYORDER=
